<svg width="21" height="20" viewBox="0 0 21 20" fill="none" xmlns="http://www.w3.org/2000/svg">
<path d="M13.1282 18.3935C13.1284 18.076 13.2258 17.7655 13.408 17.5016C13.5902 17.2377 13.8491 17.0321 14.1519 16.9107C14.4547 16.7893 14.7879 16.7577 15.1093 16.8197C15.4306 16.8818 15.7258 17.0349 15.9575 17.2595C16.1891 17.4841 16.3468 17.7701 16.4107 18.0816C16.4745 18.393 16.4417 18.7158 16.3162 19.0091C16.1908 19.3024 15.9784 19.5532 15.7059 19.7295C15.4334 19.9059 15.113 20 14.7853 20C14.3459 19.9992 13.9248 19.8296 13.6141 19.5285C13.3035 19.2273 13.1288 18.8193 13.1282 18.3935ZM6.49976 18.3935C6.49997 18.0759 6.59734 17.7655 6.7796 17.5016C6.96185 17.2377 7.2208 17.032 7.52367 16.9107C7.82655 16.7894 8.15974 16.7578 8.48115 16.82C8.80256 16.8821 9.09773 17.0351 9.32934 17.2598C9.56095 17.4844 9.71861 17.7708 9.78236 18.0823C9.8461 18.3938 9.81305 18.7166 9.68744 19.0099C9.56183 19.3032 9.3493 19.5538 9.07667 19.73C8.80405 19.9063 8.48359 20.0002 8.15585 20C7.71652 19.9992 7.29544 19.8296 6.98498 19.5285C6.67452 19.2273 6.50003 18.8192 6.49976 18.3935ZM7.60416 14.6437C7.31142 14.6432 7.03081 14.5304 6.82381 14.3298C6.61682 14.1293 6.50031 13.8574 6.49976 13.5738C6.50137 13.5359 6.50826 13.4986 6.52026 13.4625C6.52539 13.4407 6.53255 13.4198 6.53563 13.3969L4.37605 5.00446H3.73722V4.83951C3.57211 4.94262 3.38088 4.9997 3.1845 5.00446H2.0801C1.78692 5.00446 1.50575 4.89168 1.29844 4.69082C1.09113 4.48996 0.97467 4.21747 0.97467 3.93342C0.97467 3.64936 1.09113 3.37699 1.29844 3.17613C1.50575 2.97527 1.78692 2.86238 2.0801 2.86238H3.1845C3.38098 2.86651 3.57238 2.92364 3.73722 3.02732V2.86238H9.85192C9.82936 3.07599 9.81809 3.29656 9.81809 3.51912V4.10333C9.81819 4.4045 9.84011 4.7053 9.88372 5.00349H6.55719L7.65952 9.28862H12.5734C13.6864 10.0615 15.0219 10.4758 16.3912 10.4729H16.5153L16.3614 10.8962H16.2856C16.2014 11.0555 16.0743 11.1898 15.9178 11.2849C15.7613 11.3801 15.5812 11.4325 15.3965 11.4366H8.2102L8.48603 12.5067H15.3381C15.6312 12.5067 15.9124 12.6195 16.1197 12.8204C16.327 13.0212 16.4435 13.2937 16.4435 13.5778C16.4435 13.8618 16.327 14.1343 16.1197 14.3352C15.9124 14.536 15.6312 14.6488 15.3381 14.6488L7.60416 14.6437ZM16.6476 7.61153C16.5249 7.61153 16.4035 7.58814 16.2902 7.54265C16.1769 7.49715 16.074 7.43047 15.9873 7.34641C15.9007 7.26235 15.832 7.16247 15.7851 7.05267C15.7383 6.94286 15.7143 6.82522 15.7144 6.70641V4.76007H13.6943C13.5717 4.76007 13.4504 4.73662 13.3372 4.69119C13.224 4.64575 13.1211 4.57915 13.0344 4.49519C12.9478 4.41124 12.879 4.31163 12.8322 4.20193C12.7853 4.09224 12.7611 3.97465 12.7611 3.85592V3.76653C12.761 3.64776 12.785 3.53015 12.8319 3.42039C12.8787 3.31064 12.9474 3.21087 13.0341 3.12689C13.1208 3.04291 13.2237 2.97629 13.337 2.9309C13.4503 2.88551 13.5717 2.86224 13.6943 2.86238H15.7144V0.905127C15.7143 0.786312 15.7383 0.668675 15.7851 0.558867C15.832 0.449059 15.9007 0.349183 15.9873 0.265122C16.074 0.181061 16.1769 0.114387 16.2902 0.0688881C16.4035 0.0233896 16.5249 -7.17391e-08 16.6476 0H16.7398C16.9874 0.000263315 17.2248 0.0957724 17.3997 0.265486C17.5747 0.4352 17.673 0.665247 17.673 0.905127V2.86238H19.6829C19.9303 2.86238 20.1677 2.9577 20.3427 3.12725C20.5177 3.29681 20.616 3.52674 20.616 3.76653V3.85592C20.616 4.09571 20.5177 4.32564 20.3427 4.49519C20.1677 4.66475 19.9303 4.76007 19.6829 4.76007H17.673V6.70641C17.673 6.94629 17.5747 7.17633 17.3997 7.34605C17.2248 7.51576 16.9874 7.61127 16.7398 7.61153H16.6476Z" fill="#677585"/>
</svg>
