<svg width="19" height="19" viewBox="0 0 19 19" fill="none" xmlns="http://www.w3.org/2000/svg">
<path d="M8.88998 18.7C8.80381 18.6277 8.73281 18.539 8.68109 18.4391C8.62938 18.3392 8.59795 18.23 8.58865 18.1178C8.57936 18.0057 8.59237 17.8929 8.62692 17.7858C8.66147 17.6787 8.7169 17.5796 8.78998 17.4941L15.438 10.9371H1.44998C1.1982 10.9368 0.956813 10.8366 0.77887 10.6585C0.600926 10.4804 0.500976 10.2389 0.500977 9.9871V9.97709C0.500976 9.72531 0.600926 9.48371 0.77887 9.30558C0.956813 9.12745 1.1982 9.02728 1.44998 9.02702H15.375L8.79797 2.54203C8.72255 2.45393 8.66527 2.35181 8.62946 2.24149C8.59364 2.13118 8.58 2.01482 8.58929 1.89921C8.59859 1.7836 8.63065 1.67097 8.68362 1.56779C8.7366 1.46461 8.80945 1.37294 8.89798 1.29801C9.05403 1.12085 9.27286 1.01138 9.50821 0.992715C9.74356 0.974051 9.97694 1.04769 10.159 1.19804L18.28 9.20609C18.4307 9.38197 18.5058 9.61034 18.4887 9.84135C18.4717 10.0724 18.3639 10.2872 18.189 10.439C18.2019 10.5463 18.1906 10.6553 18.156 10.7577C18.1214 10.8602 18.0644 10.9535 17.989 11.031L10.115 18.7951C9.97433 18.9283 9.78658 19.0002 9.59296 18.995C9.32908 18.9923 9.07678 18.8864 8.88998 18.7Z" fill="#D0AD37"/>
</svg>
