<svg width="35" height="35" viewBox="0 0 35 35" fill="none" xmlns="http://www.w3.org/2000/svg">
<path d="M35 3.53479L30.4521 16.4063H30.3023C30.1367 16.7306 29.8868 17.0044 29.5788 17.1988C29.2707 17.3931 28.916 17.5008 28.5518 17.5106H14.3285L14.873 19.6961H28.4369C29.0172 19.6961 29.5739 19.9266 29.9843 20.3368C30.3947 20.747 30.6252 21.3034 30.6252 21.8835C30.6252 22.4636 30.3947 23.0199 29.9843 23.4302C29.5739 23.8404 29.0172 24.0709 28.4369 24.0709H13.1282C12.5481 24.0704 11.9921 23.8397 11.5821 23.4296C11.1722 23.0194 10.9417 22.4633 10.9417 21.8835C10.955 21.7611 10.979 21.64 11.0137 21.5218L6.73434 4.38448H5.46802V4.05006C5.14108 4.2594 4.76294 4.37506 4.37479 4.38448H2.18835C1.60796 4.38448 1.05151 4.15398 0.641117 3.74377C0.230723 3.33356 0 2.77724 0 2.19711C0 1.61698 0.230723 1.06066 0.641117 0.650446C1.05151 0.240233 1.60796 0.00973117 2.18835 0.00973117H4.37479C4.76317 0.0194345 5.14141 0.135757 5.46802 0.34605V0H32.8057C33.3858 0.00051537 33.942 0.231151 34.352 0.641308C34.762 1.05146 34.9922 1.60759 34.9922 2.18738C34.9828 2.66833 34.8114 3.13207 34.5059 3.5037L35 3.53479ZM11.0469 4.37475L13.2293 13.1243H27.299L30.3899 4.37475H11.0469ZM14.2136 28.4359C14.8631 28.4351 15.4984 28.627 16.0388 28.9871C16.5793 29.3473 17.0007 29.8596 17.2498 30.4593C17.499 31.0589 17.5646 31.719 17.4384 32.3559C17.3121 32.9928 16.9996 33.5779 16.5406 34.0373C16.0815 34.4966 15.4965 34.8097 14.8594 34.9367C14.2224 35.0636 13.5622 34.9988 12.962 34.7505C12.3618 34.5022 11.8486 34.0816 11.4876 33.5418C11.1267 33.002 10.9341 32.3672 10.9341 31.7179C10.9339 31.2872 11.0183 30.8606 11.183 30.4626C11.3477 30.0645 11.5894 29.7027 11.8939 29.398C12.1984 29.0932 12.5599 28.8514 12.9579 28.6863C13.356 28.5212 13.7826 28.4362 14.2136 28.4359ZM27.336 28.4359C27.9856 28.4351 28.6206 28.627 29.1611 28.9871C29.7016 29.3473 30.1232 29.8596 30.3723 30.4593C30.6214 31.0589 30.6869 31.719 30.5606 32.3559C30.4344 32.9928 30.1221 33.5779 29.6631 34.0373C29.204 34.4966 28.6189 34.8097 27.9819 34.9367C27.3449 35.0636 26.6844 34.9988 26.0842 34.7505C25.484 34.5022 24.9708 34.0816 24.6099 33.5418C24.2489 33.002 24.0564 32.3672 24.0564 31.7179C24.0561 31.2872 24.1408 30.8606 24.3055 30.4626C24.4701 30.0645 24.7116 29.7027 25.0161 29.398C25.3207 29.0932 25.6821 28.8514 26.0802 28.6863C26.4782 28.5212 26.9051 28.4362 27.336 28.4359Z" fill="#11293B"/>
</svg>
