<svg width="33" height="33" viewBox="0 0 33 33" fill="none" xmlns="http://www.w3.org/2000/svg">
<path d="M18.011 5.53047C18.011 1.8435 16.2846 0 12.832 0H5.26297C1.80964 0 0.0833179 1.8435 0.0839846 5.53047V32.2843H4.40897V20.4577L18.009 20.4667L18.011 5.53047ZM13.687 16.5455H4.40796V5.80399C4.37222 5.54826 4.39641 5.28776 4.47861 5.04294C4.5608 4.79812 4.69876 4.57566 4.88165 4.39309C5.06454 4.21051 5.28735 4.07279 5.53259 3.99074C5.77783 3.90869 6.03882 3.88456 6.29498 3.92024H11.795C12.0511 3.88456 12.3121 3.90869 12.5573 3.99074C12.8026 4.07279 13.0254 4.21051 13.2083 4.39309C13.3912 4.57566 13.5291 4.79812 13.6113 5.04294C13.6935 5.28776 13.7177 5.54826 13.682 5.80399L13.687 16.5455Z" fill="#FF5E00"/>
<path d="M0.573987 31.7922V5.52751C0.464743 4.15547 0.879921 2.793 1.736 1.71408C2.2062 1.27641 2.76254 0.941295 3.36961 0.730064C3.97668 0.518833 4.62116 0.436117 5.26201 0.487197H12.831C13.4719 0.436117 14.1163 0.518833 14.7234 0.730064C15.3304 0.941295 15.8868 1.27641 16.357 1.71408C17.2134 2.79285 17.629 4.15534 17.52 5.52751V19.9736L3.92 19.9646V31.7902L0.573987 31.7922ZM6.29799 3.42214C5.97603 3.38493 5.64982 3.42088 5.34373 3.52727C5.03765 3.63367 4.75962 3.80777 4.53044 4.03656C4.30126 4.26534 4.12688 4.54286 4.02031 4.84842C3.91373 5.15397 3.87772 5.47966 3.91499 5.80106V17.0377H14.178V5.79804C14.2153 5.47664 14.1793 5.15099 14.0727 4.84543C13.9661 4.53988 13.7917 4.26232 13.5625 4.03354C13.3334 3.80476 13.0553 3.63068 12.7492 3.52429C12.4432 3.41789 12.117 3.38194 11.795 3.41915L6.29799 3.42214Z" fill="#FF5E00"/>
<path d="M28.053 0V26.2547C28.053 27.6636 27.4676 28.3678 26.2969 28.3671H19.924C18.666 28.3671 18.0369 27.6629 18.0369 26.2547L18.0309 21.999H13.707L13.713 26.119C13.713 30.2259 15.4393 32.2793 18.892 32.2793H27.16C30.6426 32.2793 32.384 30.2409 32.384 26.1639V0H28.053Z" fill="url(#paint0_linear_3103_151)"/>
<path d="M18.8849 31.7922C18.236 31.845 17.5836 31.7496 16.9772 31.5132C16.3707 31.2767 15.8262 30.9055 15.3849 30.4276C14.5043 29.1716 14.0873 27.6495 14.205 26.121L14.1999 22.4922H17.5419L17.5469 26.2607C17.5469 27.9388 18.3939 28.8622 19.9299 28.8622H26.3029C27.1419 28.8622 28.5499 28.5238 28.5499 26.2607V0.493164H31.8909V26.1699C32.0083 27.6876 31.5875 29.1982 30.702 30.4375C30.2515 30.9155 29.6987 31.2857 29.0849 31.5206C28.4711 31.7556 27.812 31.8491 27.1569 31.7942L18.8849 31.7922Z" fill="url(#paint1_linear_3103_151)"/>
<defs>
<linearGradient id="paint0_linear_3103_151" x1="42.7684" y1="-6.84322" x2="-0.502779" y2="6.67343" gradientUnits="userSpaceOnUse">
<stop/>
<stop offset="0.5"/>
<stop offset="1"/>
</linearGradient>
<linearGradient id="paint1_linear_3103_151" x1="41.7652" y1="-6.14589" x2="0.542093" y2="6.4503" gradientUnits="userSpaceOnUse">
<stop/>
<stop offset="0.5"/>
<stop offset="1"/>
</linearGradient>
</defs>
</svg>
